<svg width="565" height="170" viewBox="0 0 565 170" fill="none" xmlns="http://www.w3.org/2000/svg">
<path d="M2.5 20C2.5 10.335 10.335 2.5 20 2.5H545C554.665 2.5 562.5 10.335 562.5 20V150C562.5 159.665 554.665 167.5 545 167.5H20C10.335 167.5 2.5 159.665 2.5 150V20Z" fill="white"/>
<path d="M2.5 20C2.5 10.335 10.335 2.5 20 2.5H545C554.665 2.5 562.5 10.335 562.5 20V150C562.5 159.665 554.665 167.5 545 167.5H20C10.335 167.5 2.5 159.665 2.5 150V20Z" fill="url(#paint0_linear_21_20)"/>
<path d="M2.5 20C2.5 10.335 10.335 2.5 20 2.5H545C554.665 2.5 562.5 10.335 562.5 20V150C562.5 159.665 554.665 167.5 545 167.5H20C10.335 167.5 2.5 159.665 2.5 150V20Z" stroke="#C4C4C4" stroke-width="5"/>
<path d="M141.118 65.3734L160.462 30L119.552 31.5137L99.9846 66.8711L141.118 65.3734Z" fill="#06EBFB"/>
<path d="M119.552 31.5137L141.118 65.3733L99.9846 66.8711L119.552 31.5137Z" fill="#23D3FE"/>
<path d="M99.9846 66.8712L58.636 68.5124L80.2743 103.009L39.9534 103.846L21 140H101.817L121.049 100.81L99.9846 66.8712Z" fill="#23D3FE"/>
<path d="M99.9846 66.8711L79.8919 31.5137L58.636 68.5123L99.9846 66.8711Z" fill="#39BFFE"/>
<path d="M99.9846 66.8712L58.636 68.5124L80.2743 103.009L99.9846 66.8712Z" fill="#499ED9"/>
<path d="M121.049 100.81L80.2744 103.009L101.817 140L121.049 100.81Z" fill="#2E97BF"/>
<path d="M99.9847 66.8712L80.2744 103.009L101.817 140L121.049 100.81L99.9847 66.8712Z" fill="#3382B8"/>
<path d="M101.817 140L80.2742 103.009L62.8186 140H101.817Z" fill="#39BFFE"/>
<path d="M62.8188 140L80.2745 103.009L39.9536 103.846L62.8188 140Z" fill="#23D3FE"/>
<path d="M62.8186 140L39.9534 103.846L21 140H62.8186Z" fill="#06EBFB"/>
<path fill-rule="evenodd" clip-rule="evenodd" d="M175.983 87.0068C172.348 86.8911 168.803 88.154 166.061 90.5419C164.79 91.6069 163.772 92.9421 163.082 94.4502C162.392 95.9583 162.048 97.6013 162.074 99.2592C162.074 104.412 165.241 108.326 171.574 111.002L176.04 112.859C177.082 113.297 178.085 113.823 179.038 114.432C179.805 114.918 180.496 115.514 181.091 116.199C181.608 116.808 182.005 117.509 182.26 118.266C182.517 119.064 182.644 119.898 182.635 120.736C182.668 121.758 182.493 122.776 182.121 123.728C181.75 124.681 181.189 125.548 180.472 126.278C179.671 127.037 178.72 127.622 177.681 127.995C176.642 128.368 175.536 128.522 174.434 128.446C173.333 128.37 172.259 128.066 171.281 127.553C170.302 127.041 169.441 126.331 168.752 125.469C167.952 124.431 167.393 122.553 167.074 119.834L160 121.392C160.638 125.706 162.247 129.05 164.826 131.426C167.562 133.847 171.125 135.123 174.777 134.991C176.742 135.043 178.697 134.698 180.525 133.978C182.354 133.257 184.018 132.175 185.418 130.797C186.82 129.43 187.922 127.786 188.654 125.971C189.387 124.156 189.735 122.208 189.675 120.252C189.765 117.35 188.843 114.507 187.067 112.209C185.328 110.022 182.581 108.17 178.824 106.651L174.208 104.764C170.851 103.386 169.172 101.569 169.172 99.3117C169.159 98.5313 169.325 97.7582 169.658 97.052C169.99 96.3457 170.481 95.7251 171.091 95.2379C172.32 94.3006 173.794 93.7372 175.336 93.615C176.877 93.4927 178.421 93.8169 179.783 94.5486C180.743 95.1079 181.752 96.3063 182.811 98.1439L188.476 94.7886C185.483 89.6008 181.319 87.0068 175.983 87.0068ZM221.791 87.0068C214.178 87.0068 207.973 89.8328 203.178 95.4849C199.373 99.8497 197.295 105.453 197.333 111.241C197.285 114.376 197.879 117.486 199.081 120.382C200.282 123.278 202.064 125.897 204.317 128.077C206.524 130.316 209.163 132.084 212.075 133.274C214.986 134.463 218.108 135.049 221.253 134.997C225.674 134.99 230.015 133.823 233.842 131.612V123.192C232.806 124.073 231.72 124.893 230.59 125.648C229.649 126.281 228.65 126.824 227.607 127.269C225.631 128.119 223.493 128.528 221.343 128.467C219.097 128.511 216.867 128.09 214.793 127.228C212.72 126.367 210.847 125.086 209.294 123.464C207.688 121.854 206.425 119.936 205.58 117.826C204.735 115.715 204.326 113.455 204.378 111.183C204.326 108.883 204.734 106.596 205.578 104.456C206.422 102.316 207.686 100.366 209.294 98.7204C210.822 97.0671 212.684 95.7558 214.755 94.8729C216.827 93.99 219.062 93.5553 221.314 93.5977C225.63 93.5977 229.807 95.2855 233.844 98.661V90.3898C230.205 88.1996 226.043 87.0301 221.795 87.0045L221.791 87.0068ZM277.341 134.159H284.987L262.898 85L239.997 134.159H247.521L252.677 122.924H272.489L277.341 134.159ZM255.579 116.364L262.773 100.637L269.637 116.364H255.581H255.579ZM315.415 87.9053H292.305V134.159H299.289V112.138H314.846V105.577H299.289V94.4621H315.415V87.9014V87.9053ZM348.153 87.9053H325.043V134.159H332.027V112.138H347.584V105.577H332.027V94.4621H348.153V87.9014V87.9053ZM363.387 128.796C368.015 132.921 374.038 135.135 380.237 134.991C386.437 134.846 392.35 132.353 396.78 128.017C399.081 125.846 400.904 123.22 402.132 120.306C403.36 117.392 403.967 114.253 403.914 111.092C403.879 104.722 401.331 98.624 396.825 94.1201C392.318 89.6161 386.216 87.0701 379.843 87.0346C376.66 86.9856 373.499 87.5815 370.552 88.7863C367.606 89.9911 364.934 91.7798 362.697 94.0446C360.405 96.1919 358.585 98.792 357.351 101.68C356.118 104.568 355.499 107.68 355.534 110.82C355.534 118.23 358.152 124.221 363.387 128.793V128.796ZM367.558 98.6301C370.793 95.4069 375.174 93.5969 379.742 93.5969C384.31 93.5969 388.692 95.4069 391.927 98.6301C395.113 101.978 396.884 106.424 396.873 111.044C396.862 115.664 395.069 120.101 391.868 123.434C388.548 126.505 384.16 128.162 379.637 128.051C375.115 127.941 370.813 126.072 367.648 122.842C364.482 119.612 362.701 115.276 362.684 110.754C362.668 106.233 364.416 101.884 367.558 98.6301ZM414.234 87.9053V134.159H434.827V127.598H421.219V87.9029H414.234V87.9053ZM452.578 134.159C457.274 134.159 460.901 133.729 463.46 132.87C466.371 131.911 469.046 130.349 471.313 128.287C476.289 123.894 478.777 118.142 478.777 111.032C478.777 103.943 476.389 98.2213 471.612 93.867C469.36 91.7709 466.666 90.2049 463.729 89.2838C461.031 88.3653 457.354 87.9058 452.699 87.9053H442.983V134.159H452.574H452.578ZM449.971 94.4637H453.118C459.073 94.4637 463.578 95.8715 466.634 98.6873C470.032 101.843 471.731 105.957 471.731 111.029C471.731 116.062 470.013 120.146 466.575 123.282C464.948 124.77 463.027 125.902 460.937 126.607C458.394 127.328 455.756 127.661 453.114 127.595H449.971V94.4637ZM489.094 87.9029V134.156H509.687V127.595H496.078V87.9029H489.094ZM523.265 134.156H530.25V114.176L545.417 87.9037H537.384L526.773 106.387L516.192 87.9037H508.16L523.265 114.176V134.157V134.156Z" fill="black"/>
<path d="M389 60.7158V38.0986H392.398C393.912 38.0986 395.118 38.2158 396.017 38.4502C396.925 38.6846 397.691 39.0801 398.316 39.6367C398.951 40.2129 399.454 40.9307 399.825 41.79C400.206 42.6592 400.396 43.5381 400.396 44.4268C400.396 46.0479 399.776 47.4199 398.536 48.543C399.737 48.9531 400.685 49.6709 401.378 50.6963C402.081 51.7119 402.433 52.8936 402.433 54.2412C402.433 56.0088 401.808 57.5029 400.558 58.7236C399.806 59.4756 398.961 59.998 398.023 60.291C396.998 60.5742 395.714 60.7158 394.171 60.7158H389ZM392.413 47.8105H393.482C394.752 47.8105 395.68 47.5322 396.266 46.9756C396.861 46.4092 397.159 45.5791 397.159 44.4854C397.159 43.4209 396.856 42.6152 396.251 42.0684C395.646 41.5117 394.767 41.2334 393.614 41.2334H392.413V47.8105ZM392.413 57.5078H394.522C396.065 57.5078 397.198 57.2051 397.921 56.5996C398.683 55.9453 399.063 55.1152 399.063 54.1094C399.063 53.1328 398.697 52.3125 397.965 51.6484C397.252 50.9941 395.978 50.667 394.142 50.667H392.413V57.5078Z" fill="black"/>
<path d="M410.167 38.0986V51.7217C410.167 53.665 410.484 55.0859 411.119 55.9844C412.066 57.2832 413.399 57.9326 415.118 57.9326C416.847 57.9326 418.185 57.2832 419.132 55.9844C419.767 55.1152 420.084 53.6943 420.084 51.7217V38.0986H423.497V52.6592C423.497 55.042 422.755 57.0049 421.271 58.5479C419.601 60.2666 417.55 61.126 415.118 61.126C412.687 61.126 410.641 60.2666 408.98 58.5479C407.496 57.0049 406.754 55.042 406.754 52.6592V38.0986H410.167Z" fill="black"/>
<path d="M432.345 38.0986V60.7158H428.932V38.0986H432.345Z" fill="black"/>
<path d="M441.192 38.0986V57.5078H447.843V60.7158H437.779V38.0986H441.192Z" fill="black"/>
<path d="M455.855 41.3066V60.7158H452.442V41.3066H447.242V38.0986H461.041V41.3066H455.855Z" fill="black"/>
<path d="M474.459 38.0986L480.348 53.2158L486.5 37L492.389 53.2158L498.644 38.0986H502.35L492.242 62.1514L486.427 46.126L480.362 62.166L470.753 38.0986H474.459Z" fill="black"/>
<path d="M508.575 38.0986V60.7158H505.162V38.0986H508.575Z" fill="black"/>
<path d="M520.25 41.3066V60.7158H516.837V41.3066H511.637V38.0986H525.436V41.3066H520.25Z" fill="black"/>
<path d="M531.896 46.9463H541.651V38.0986H545.064V60.7158H541.651V50.1543H531.896V60.7158H528.482V38.0986H531.896V46.9463Z" fill="black"/>
<defs>
<linearGradient id="paint0_linear_21_20" x1="282.5" y1="0" x2="282.5" y2="170" gradientUnits="userSpaceOnUse">
<stop offset="0.833333" stop-color="white" stop-opacity="0"/>
<stop offset="1" stop-color="#3382B8"/>
</linearGradient>
</defs>
</svg>
